<svg width="16" height="16" viewBox="0 0 16 16" fill="none" xmlns="http://www.w3.org/2000/svg">
<path fill-rule="evenodd" clip-rule="evenodd" d="M11.6668 0C11.3799 0 11.1251 0.18362 11.0344 0.455848L10.3898 2.38962L8.45601 3.03421C8.18378 3.12495 8.00016 3.37971 8.00016 3.66667C8.00016 3.95362 8.18378 4.20838 8.45601 4.29912L10.3898 4.94371L11.0344 6.87748C11.1251 7.14971 11.3799 7.33333 11.6668 7.33333C11.9538 7.33333 12.2085 7.14971 12.2993 6.87748L12.9439 4.94371L14.8776 4.29912C15.1499 4.20838 15.3335 3.95362 15.3335 3.66667C15.3335 3.37971 15.1499 3.12495 14.8776 3.03421L12.9439 2.38962L12.2993 0.455848C12.2085 0.18362 11.9538 0 11.6668 0ZM11.6668 2.77485L11.7844 3.12749C11.8507 3.32656 12.0069 3.48277 12.206 3.54912L12.5586 3.66667L12.206 3.78421C12.0069 3.85057 11.8507 4.00678 11.7844 4.20585L11.6668 4.55848L11.5493 4.20585C11.4829 4.00678 11.3267 3.85057 11.1276 3.78421L10.775 3.66667L11.1276 3.54912C11.3267 3.48277 11.4829 3.32656 11.5493 3.12749L11.6668 2.77485Z" fill="#1C275C"/>
<path fill-rule="evenodd" clip-rule="evenodd" d="M10.8621 10.8619C10.6017 11.1223 10.6017 11.5444 10.8621 11.8047L13.5288 14.4714C13.7891 14.7318 14.2112 14.7318 14.4716 14.4714C14.7319 14.2111 14.7319 13.7889 14.4716 13.5286L11.8049 10.8619C11.5446 10.6016 11.1224 10.6016 10.8621 10.8619Z" fill="#1C275C"/>
<path fill-rule="evenodd" clip-rule="evenodd" d="M7.32018 2.63406C7.24693 2.27323 6.89504 2.0401 6.53421 2.11334C3.94739 2.63844 2.00017 4.9244 2.00017 7.66666C2.00017 10.7963 4.53722 13.3333 7.66683 13.3333C10.1352 13.3333 12.2333 11.7555 13.0109 9.5555C13.1336 9.20835 12.9516 8.82747 12.6045 8.70477C12.2573 8.58207 11.8765 8.76402 11.7538 9.11117C11.1586 10.7951 9.55255 12 7.66683 12C5.2736 12 3.3335 10.0599 3.3335 7.66666C3.3335 5.57101 4.82179 3.82147 6.79945 3.42002C7.16028 3.34678 7.39342 2.99489 7.32018 2.63406Z" fill="#1C275C"/>
</svg>
